<svg width="50" height="3.5" viewBox="0 0 161 30" version="1.1" xmlns="http://www.w3.org/2000/svg">
                <title>Showmax</title>
                <defs>
                  <linearGradient id="pink-linear-gradient" x1="228.62" y1="75.94" x2="228.62" y2="19.94" gradientUnits="userSpaceOnUse">
                    <stop offset="0" stop-color="#c44a88"></stop>
                    <stop offset="1" stop-color="#e43f8c"></stop>
                  </linearGradient>
                  <linearGradient id="blue-linear-gradient" x1="250.83" y1="19.94" x2="250.83" y2="75.94" gradientUnits="userSpaceOnUse">
                    <stop offset="0" stop-color="#658d9d"></stop>
                    <stop offset="1" stop-color="#377b8b"></stop>
                  </linearGradient>
                </defs>
                <g id="Symbols" stroke="none" stroke-width="1" fill="none" fill-rule="evenodd">
                  <g transform="translate(-760.000000, -22.000000)" fill="#FFFFFF">
                    <g transform="translate(760.000000, 22.000000)">
                      <g transform="translate(0.000000, 0.700000)">
                        <path d="M18.2369427,0.954025641 L25.5484106,0.210435897 L25.5484106,10.4013333 C26.8954931,8.65761538 28.8197385,7.0689359 31.7830986,7.0689359 C36.208383,7.0689359 38.8641445,10.0135513 38.8641445,14.7795897 L38.8641445,28.4437949 L31.590711,28.4437949 L31.590711,17.1430897 C31.590711,14.8182564 30.3976124,13.5783205 28.6273509,13.5783205 C26.8570894,13.5783205 25.5484106,14.8182564 25.5484106,17.1430897 L25.5484106,28.4437949 L18.2369427,28.4437949 L18.2369427,0.954025641" id="h"></path>
                        <path d="M54.3050046,18.1119872 L54.3050046,18.0342821 C54.3050046,15.4384103 52.4195321,13.2686154 49.8409472,13.2686154 C47.185555,13.2686154 45.4924702,15.3993718 45.4924702,17.9569487 L45.4924702,18.0342821 C45.4924702,20.591859 47.339539,22.7616538 49.9177546,22.7616538 C52.5735161,22.7616538 54.3050046,20.6305256 54.3050046,18.1119872 L54.3050046,18.1119872 Z M38.4114243,18.1119872 L38.4114243,18.0342821 C38.4114243,12.0673462 43.2602569,7.0689359 49.9177546,7.0689359 C56.5759908,7.0689359 61.3864197,11.9900128 61.3864197,17.9569487 L61.3864197,18.0342821 C61.3864197,24.0015897 56.5372179,29 49.8409472,29 C43.2218532,29 38.4114243,24.0789231 38.4114243,18.1119872 L38.4114243,18.1119872 Z" id="o"></path>
                        <polyline id="w" points="80.8009518 18.3584872 77.343883 7.62328205 71.3403555 7.62328205 68.1074312 18.0156923 65.3752317 7.62328205 58.2557821 7.62328205 64.6056812 28.4437949 70.84 28.4437949 74.3037156 17.6204744 77.6887775 28.4437949 80.8009518 18.3584872"></polyline>
                        <polyline id="m" points="112.446683 7.62328205 106.212365 7.62328205 102.748649 18.4834103 99.3558326 7.62328205 96.3064335 17.5052179 99.7084817 28.4437949 105.71164 28.4437949 108.944564 18.0517564 111.677133 28.4437949 118.796583 28.4437949 112.446683 7.62328205"></polyline>
                        <path d="M0,25.8168976 L2.73256881,21.3988592 C5.11876606,22.9879105 7.69772018,23.8013976 9.85275688,23.8013976 C11.1226628,23.8013976 11.7385986,23.4143592 11.7385986,22.6778335 L11.7385986,22.6005002 C11.7385986,21.7476028 10.5455,21.3988592 8.35169037,20.7790771 C4.23363532,19.6941797 0.962307339,18.2992053 0.962307339,14.1139105 L0.962307339,14.0362053 C0.962307339,9.579872 4.50319954,7.1000002 9.31399771,7.1000002 C12.3545344,7.1000002 15.5102821,7.99119251 17.8964794,9.54120533 L15.3950711,14.1912438 C13.2396651,12.9513079 10.8918716,12.215154 9.2368211,12.215154 C8.12089908,12.215154 7.54373624,12.641231 7.54373624,13.2613848 L7.54373624,13.3390899 C7.54373624,14.1529489 8.77523853,14.5399874 10.9306445,15.1988079 C15.0486995,16.3614105 18.3200275,17.7954233 18.3200275,21.8639746 L18.3200275,21.9416797 C18.3200275,26.5530515 14.8947156,28.9555899 9.81435321,28.9555899 C6.31186468,28.9555899 2.84814908,27.9093592 0,25.8168976" id="s"></path>
                        <path d="M137.818216,24.0157179 L137.818216,12.2372564 L143.306986,18.1302051 L137.818216,24.0157179 L137.818216,24.0157179 Z M131.909959,18.0443205 C131.909959,20.8342692 129.864963,22.8107308 127.478766,22.8107308 C125.131342,22.8107308 123.047573,20.8342692 123.047573,18.0443205 L123.047573,17.9669872 C123.047573,15.1766667 125.131342,13.2005769 127.478766,13.2005769 C129.864963,13.2005769 131.909959,15.2153333 131.909959,17.9669872 L131.909959,18.0443205 L131.909959,18.0443205 Z M160.796904,7.62328205 L151.442287,7.62328205 L147.577548,12.4305897 L143.713179,7.62328205 L131.540693,7.62328205 L131.540693,10.1001795 C130.063628,8.5115 128.366482,7.07785897 125.210365,7.07785897 C120.283986,7.07785897 116.031518,11.2241154 116.031518,18.0443205 L116.031518,18.1216538 C116.031518,24.8254872 120.283986,28.9721154 125.248768,28.9721154 C128.366482,28.9721154 130.063628,27.4607692 131.540693,25.7170513 L131.540693,28.4437949 L143.809557,28.4437949 L147.577548,23.7576923 L151.344431,28.4437949 L160.699048,28.4437949 L152.255041,18.0952564 L160.796904,7.62328205 L160.796904,7.62328205 Z" id="ax"></path>
                        <polygon id="/m" fill="url(#pink-linear-gradient)" opacity="0.75" points="91.1522179 7.62328205 84.7277271 28.4437949 77.6887775 28.4437949 84.1132683 7.62328205"></polygon>
                        <polyline id="/w" fill="url(#blue-linear-gradient)" opacity="0.75" points="92.3165138 7.62328205 99.3558326 7.62328205 92.9309725 28.4437949 85.8920229 28.4437949 92.3165138 7.62328205"></polyline>
                      </g>
                    </g>
                  </g>
                </g>
              </svg>